<svg xmlns="http://www.w3.org/2000/svg" width="821" height="841" viewBox="0 0 821 841">
  <g id="组_8" transform="translate(-551 -120)">
    <rect id="矩形_2" width="821" height="841" rx="64" transform="translate(551 120)" fill="#efc55d"/>
    <path id="联合_1" d="M709.373,709.415H660.991v0H612.609v0H564.228v0H515.846v0H467.464v0H419.082v0H370.7v0H322.319v0H273.937v0H225.555v0H177.173v0H128.791v0H80.41v0H32.029v0h0V662.506h0V615.6h0V563.447h0V514.792h0V466.136h0V417.48h0V368.824h0V320.169h0V271.513h0V222.856h0V174.2h0V122.051h0V75.142h0V28.234h0v0H80.41v0h48.381v0h48.382v0h48.382v0h48.382v0h48.382v0H370.7v0h48.381v0h48.382v0h48.382v0h48.382v0h48.381v0h48.382v0h48.382v0h0V75.142h0v46.909h0V174.2h0v48.656h0v48.657h0v48.656h0v48.656h0V417.48h0v48.656h0v48.656h0v48.656h0V615.6h0v46.91h0v46.909h0v0Zm0,0V662.506H660.991v46.909Zm-48.382,0V662.506H612.609v46.909Zm-48.382,0V662.506H564.228v46.909Zm-48.381,0V662.506H515.846v46.909Zm-48.382,0V662.506H467.464v46.909Zm-48.382,0V662.506H419.082v46.909Zm-48.382,0V662.506H370.7v46.909Zm-48.381,0V662.506H322.319v46.909Zm-48.382,0V662.506H273.937v46.909Zm-48.382,0V662.506H225.555v46.909Zm-48.382,0V662.506H177.173v46.909Zm-48.382,0V662.506H128.791v46.909Zm-48.382,0V662.506H80.41v46.909Zm-48.381,0V662.506H32.029v46.909Zm628.962-46.909V615.6H660.991v46.91Zm-48.382,0V615.6H612.609v46.91Zm-48.382,0V615.6H564.228v46.91Zm-48.381,0V615.6H515.846v46.91Zm-48.382,0V615.6H467.464v46.91Zm-48.382,0V615.6H419.082v46.91Zm-48.382,0V615.6H370.7v46.91Zm-48.381,0V615.6H322.319v46.91Zm-48.382,0V615.6H273.937v46.91Zm-48.382,0V615.6H225.555v46.91Zm-48.382,0V615.6H177.173v46.91Zm-48.382,0V615.6H128.791v46.91Zm-48.382,0V615.6H80.41v46.91Zm-48.381,0V615.6H32.029v46.91ZM709.373,615.6V563.447H660.991V615.6Zm-48.382,0V563.447H612.609V615.6Zm-48.382,0V563.447H564.228V615.6Zm-48.381,0V563.447H515.846V615.6Zm-48.382,0V563.447H467.464V615.6Zm-48.382,0V563.447H419.082V615.6Zm-48.382,0V563.447H370.7V615.6Zm-48.381,0V563.447H322.319V615.6Zm-48.382,0V563.447H273.937V615.6Zm-48.382,0V563.447H225.555V615.6Zm-48.382,0V563.447H177.173V615.6Zm-48.382,0V563.447H128.791V615.6Zm-48.382,0V563.447H80.41V615.6Zm-48.381,0V563.447H32.029V615.6Zm628.962-52.149V514.792H660.991v48.656Zm-48.382,0V514.792H612.609v48.656Zm-48.382,0V514.792H564.228v48.656Zm-48.381,0V514.792H515.846v48.656Zm-48.382,0V514.792H467.464v48.656Zm-48.382,0V514.792H419.082v48.656Zm-48.382,0V514.792H370.7v48.656Zm-48.381,0V514.792H322.319v48.656Zm-48.382,0V514.792H273.937v48.656Zm-48.382,0V514.792H225.555v48.656Zm-48.382,0V514.792H177.173v48.656Zm-48.382,0V514.792H128.791v48.656Zm-48.382,0V514.792H80.41v48.656Zm-48.381,0V514.792H32.029v48.656Zm628.962-48.656V466.136H660.991v48.656Zm-48.382,0V466.136H612.609v48.656Zm-48.382,0V466.136H564.228v48.656Zm-48.381,0V466.136H515.846v48.656Zm-48.382,0V466.136H467.464v48.656Zm-48.382,0V466.136H419.082v48.656Zm-48.382,0V466.136H370.7v48.656Zm-48.381,0V466.136H322.319v48.656Zm-48.382,0V466.136H273.937v48.656Zm-48.382,0V466.136H225.555v48.656Zm-48.382,0V466.136H177.173v48.656Zm-48.382,0V466.136H128.791v48.656Zm-48.382,0V466.136H80.41v48.656Zm-48.381,0V466.136H32.029v48.656Zm628.962-48.656V417.48H660.991v48.656Zm-48.382,0V417.48H612.609v48.656Zm-48.382,0V417.48H564.228v48.656Zm-48.381,0V417.48H515.846v48.656Zm-48.382,0V417.48H467.464v48.656Zm-48.382,0V417.48H419.082v48.656Zm-48.382,0V417.48H370.7v48.656Zm-48.381,0V417.48H322.319v48.656Zm-48.382,0V417.48H273.937v48.656Zm-48.382,0V417.48H225.555v48.656Zm-48.382,0V417.48H177.173v48.656Zm-48.382,0V417.48H128.791v48.656Zm-48.382,0V417.48H80.41v48.656Zm-48.381,0V417.48H32.029v48.656ZM709.373,417.48V368.824H660.991V417.48Zm-48.382,0V368.824H612.609V417.48Zm-48.382,0V368.824H564.228V417.48Zm-48.381,0V368.824H515.846V417.48Zm-48.382,0V368.824H467.464V417.48Zm-48.382,0V368.824H419.082V417.48Zm-48.382,0V368.824H370.7V417.48Zm-48.381,0V368.824H322.319V417.48Zm-48.382,0V368.824H273.937V417.48Zm-48.382,0V368.824H225.555V417.48Zm-48.382,0V368.824H177.173V417.48Zm-48.382,0V368.824H128.791V417.48Zm-48.382,0V368.824H80.41V417.48Zm-48.381,0V368.824H32.029V417.48Zm628.962-48.656V320.169H660.991v48.656Zm-48.382,0V320.169H612.609v48.656Zm-48.382,0V320.169H564.228v48.656Zm-48.381,0V320.169H515.846v48.656Zm-48.382,0V320.169H467.464v48.656Zm-48.382,0V320.169H419.082v48.656Zm-48.382,0V320.169H370.7v48.656Zm-48.381,0V320.169H322.319v48.656Zm-48.382,0V320.169H273.937v48.656Zm-48.382,0V320.169H225.555v48.656Zm-48.382,0V320.169H177.173v48.656Zm-48.382,0V320.169H128.791v48.656Zm-48.382,0V320.169H80.41v48.656Zm-48.381,0V320.169H32.029v48.656Zm628.962-48.656V271.513H660.991v48.656Zm-48.382,0V271.513H612.609v48.656Zm-48.382,0V271.513H564.228v48.656Zm-48.381,0V271.513H515.846v48.656Zm-48.382,0V271.513H467.464v48.656Zm-48.382,0V271.513H419.082v48.656Zm-48.382,0V271.513H370.7v48.656Zm-48.381,0V271.513H322.319v48.656Zm-48.382,0V271.513H273.937v48.656Zm-48.382,0V271.513H225.555v48.656Zm-48.382,0V271.513H177.173v48.656Zm-48.382,0V271.513H128.791v48.656Zm-48.382,0V271.513H80.41v48.656Zm-48.381,0V271.513H32.029v48.656Zm628.962-48.656V222.856H660.991v48.657Zm-48.382,0V222.856H612.609v48.657Zm-48.382,0V222.856H564.228v48.657Zm-48.381,0V222.856H515.846v48.657Zm-48.382,0V222.856H467.464v48.657Zm-48.382,0V222.856H419.082v48.657Zm-48.382,0V222.856H370.7v48.657Zm-48.381,0V222.856H322.319v48.657Zm-48.382,0V222.856H273.937v48.657Zm-48.382,0V222.856H225.555v48.657Zm-48.382,0V222.856H177.173v48.657Zm-48.382,0V222.856H128.791v48.657Zm-48.382,0V222.856H80.41v48.657Zm-48.381,0V222.856H32.029v48.657Zm628.962-48.657V174.2H660.991v48.656Zm-48.382,0V174.2H612.609v48.656Zm-48.382,0V174.2H564.228v48.656Zm-48.381,0V174.2H515.846v48.656Zm-48.382,0V174.2H467.464v48.656Zm-48.382,0V174.2H419.082v48.656Zm-48.382,0V174.2H370.7v48.656Zm-48.381,0V174.2H322.319v48.656Zm-48.382,0V174.2H273.937v48.656Zm-48.382,0V174.2H225.555v48.656Zm-48.382,0V174.2H177.173v48.656Zm-48.382,0V174.2H128.791v48.656Zm-48.382,0V174.2H80.41v48.656Zm-48.381,0V174.2H32.029v48.656ZM709.373,174.2V122.051H660.991V174.2Zm-48.382,0V122.051H612.609V174.2Zm-48.382,0V122.051H564.228V174.2Zm-48.381,0V122.051H515.846V174.2Zm-48.382,0V122.051H467.464V174.2Zm-48.382,0V122.051H419.082V174.2Zm-48.382,0V122.051H370.7V174.2Zm-48.381,0V122.051H322.319V174.2Zm-48.382,0V122.051H273.937V174.2Zm-48.382,0V122.051H225.555V174.2Zm-48.382,0V122.051H177.173V174.2Zm-48.382,0V122.051H128.791V174.2Zm-48.382,0V122.051H80.41V174.2Zm-48.381,0V122.051H32.029V174.2Zm628.962-52.149V75.142H660.991v46.909Zm-48.382,0V75.142H612.609v46.909Zm-48.382,0V75.142H564.228v46.909Zm-48.381,0V75.142H515.846v46.909Zm-48.382,0V75.142H467.464v46.909Zm-48.382,0V75.142H419.082v46.909Zm-48.382,0V75.142H370.7v46.909Zm-48.381,0V75.142H322.319v46.909Zm-48.382,0V75.142H273.937v46.909Zm-48.382,0V75.142H225.555v46.909Zm-48.382,0V75.142H177.173v46.909Zm-48.382,0V75.142H128.791v46.909Zm-48.382,0V75.142H80.41v46.909Zm-48.381,0V75.142H32.029v46.909ZM709.373,75.142V28.234H660.991V75.142Zm-48.382,0V28.234H612.609V75.142Zm-48.382,0V28.234H564.228V75.142Zm-48.381,0V28.234H515.846V75.142Zm-48.382,0V28.234H467.464V75.142Zm-48.382,0V28.234H419.082V75.142Zm-48.382,0V28.234H370.7V75.142Zm-48.381,0V28.234H322.319V75.142Zm-48.382,0V28.234H273.937V75.142Zm-48.382,0V28.234H225.555V75.142Zm-48.382,0V28.234H177.173V75.142Zm-48.382,0V28.234H128.791V75.142Zm-48.382,0V28.234H80.41V75.142Zm-48.381,0V28.234H32.029V75.142Z" transform="translate(590.046 166.024)" fill="none" stroke="#a06c30" stroke-width="11" opacity="0.496"/>
  </g>
</svg>
